<svg xmlns="http://www.w3.org/2000/svg" xmlns:svg="http://www.w3.org/2000/svg" id="Layer_1" x="0" y="0" version="1.1" viewBox="0 0 496.158 496.158" xml:space="preserve" style="enable-background:new 0 0 496.158 496.158"><metadata id="metadata41"/><path style="fill:#f39c12" id="path2" d="M 248.08203 0.00390625 C 111.07003 0.00390625 1.8947806e-14 111.06394 0 248.08594 C 0 385.08794 111.07003 496.1543 248.08203 496.1543 C 385.08803 496.1543 496.1582 385.08794 496.1582 248.08594 C 496.1582 111.06494 385.08803 0.00390625 248.08203 0.00390625 z M 162.74219 127.62109 C 169.0657 127.48713 175.39828 130.07198 179.84766 135.24023 L 248.07617 214.45312 L 316.3125 135.24023 C 324.2275 126.05823 338.08777 125.03155 347.25977 132.93555 C 356.44577 140.84555 357.48031 154.70472 349.57031 163.88672 L 277.04297 248.08203 L 349.57031 332.27344 C 357.48031 341.45444 356.44772 355.31461 347.26172 363.22461 C 343.11872 366.79361 338.01822 368.54297 332.94922 368.54297 C 326.78222 368.54297 320.6505 365.96092 316.3125 360.91992 L 248.07617 281.70703 L 179.84766 360.91992 C 175.50366 365.95792 169.37194 368.54297 163.21094 368.54297 C 158.13594 368.54297 153.03753 366.79361 148.89453 363.22461 C 139.70853 355.31461 138.67984 341.45544 146.58984 332.27344 L 219.11133 248.08203 L 146.58984 163.88672 C 138.67984 154.70572 139.70853 140.84555 148.89453 132.93555 C 152.91209 129.47492 157.8239 127.72529 162.74219 127.62109 z"/></svg>