<svg xmlns="http://www.w3.org/2000/svg" xmlns:xlink="http://www.w3.org/1999/xlink" id="Led_Indicator" x="0" y="0" enable-background="new 0 0 512 512" version="1.1" viewBox="0 0 512 512" xml:space="preserve"><switch><g><path id="Led_Grey" fill="#BFBFBF" d="M256,511.9c-34.5,0-68-6.8-99.6-20.1c-30.5-12.9-57.9-31.3-81.4-54.9 c-23.5-23.5-41.9-50.9-54.9-81.4C6.8,324,0,290.4,0,255.9s6.8-68.1,20.1-99.6c13-30.5,31.3-57.9,54.9-81.4 C98.5,51.4,125.9,33,156.4,20C187.9,6.7,221.5-0.1,256-0.1s68,6.8,99.6,20.1c30.5,13,57.8,31.3,81.4,54.9 c23.5,23.5,41.9,50.9,54.9,81.4c13.4,31.5,20.1,65.1,20.1,99.6s-6.8,68-20.1,99.6C479,386,460.5,413.4,437,436.9 s-50.9,41.9-81.4,54.9C324,505.1,290.5,511.9,256,511.9z" display="none"/><path id="Led_Orange" fill="#DB943E" d="M256,511.9c-34.5,0-68-6.8-99.6-20.1c-30.5-12.9-57.9-31.3-81.4-54.9 c-23.5-23.5-41.9-50.9-54.9-81.4C6.8,324,0,290.4,0,255.9s6.8-68.1,20.1-99.6c13-30.5,31.3-57.9,54.9-81.4 C98.5,51.4,125.9,33,156.4,20C187.9,6.7,221.5-0.1,256-0.1s68,6.8,99.6,20.1c30.5,13,57.8,31.3,81.4,54.9 c23.5,23.5,41.9,50.9,54.9,81.4c13.4,31.5,20.1,65.1,20.1,99.6s-6.8,68-20.1,99.6C479,386,460.5,413.4,437,436.9 s-50.9,41.9-81.4,54.9C324,505.1,290.5,511.9,256,511.9z" display="none"/><path id="Led_Green" fill="#3EDB49" d="M256,511.9c-34.5,0-68-6.8-99.6-20.1c-30.5-12.9-57.9-31.3-81.4-54.9 c-23.5-23.5-41.9-50.9-54.9-81.4C6.8,324,0,290.4,0,255.9s6.8-68.1,20.1-99.6c13-30.5,31.3-57.9,54.9-81.4 C98.5,51.4,125.9,33,156.4,20C187.9,6.7,221.5-0.1,256-0.1s68,6.8,99.6,20.1c30.5,13,57.8,31.3,81.4,54.9 c23.5,23.5,41.9,50.9,54.9,81.4c13.4,31.5,20.1,65.1,20.1,99.6s-6.8,68-20.1,99.6C479,386,460.5,413.4,437,436.9 s-50.9,41.9-81.4,54.9C324,505.1,290.5,511.9,256,511.9z" display="none"/><path id="Led_Red" fill="#DD3C3C" d="M256,511.9c-34.5,0-68-6.8-99.6-20.1c-30.5-12.9-57.9-31.3-81.4-54.9 c-23.5-23.5-41.9-50.9-54.9-81.4C6.8,324,0,290.4,0,255.9s6.8-68.1,20.1-99.6c13-30.5,31.3-57.9,54.9-81.4 C98.5,51.4,125.9,33,156.4,20C187.9,6.7,221.5-0.1,256-0.1s68,6.8,99.6,20.1c30.5,13,57.8,31.3,81.4,54.9 c23.5,23.5,41.9,50.9,54.9,81.4c13.4,31.5,20.1,65.1,20.1,99.6s-6.8,68-20.1,99.6C479,386,460.5,413.4,437,436.9 s-50.9,41.9-81.4,54.9C324,505.1,290.5,511.9,256,511.9z"/><linearGradient id="Flare__x28_Darken_x29__1_" x1="168.638" x2="524.246" y1="1093.394" y2="725.152" gradientTransform="matrix(1 0 0 1 0 -566)" gradientUnits="userSpaceOnUse"><stop offset="0" style="stop-color:#d1d1d1"/><stop offset="1" style="stop-color:#999"/></linearGradient><path id="Flare__x28_Darken_x29_" fill="url(#Flare__x28_Darken_x29__1_)" d="M437,74.9c23.5,23.5,41.9,50.9,54.9,81.4 c13.4,31.5,20.1,65.1,20.1,99.6s-6.8,68-20.1,99.6C479,386,460.5,413.4,437,436.9s-50.9,41.9-81.4,54.9 c-31.6,13.3-65.1,20.1-99.6,20.1s-68-6.8-99.6-20.1c-30.5-12.9-57.9-31.3-81.4-54.9c0,0,148.5,6.6,262-106.9S437,74.9,437,74.9z"/><path id="Frame" fill="#4F4F4F" d="M256,30.8c30.2,0,59.6,5.9,87.4,17.6c27,11.6,51.1,27.7,71.6,48.4 c20.6,20.6,36.8,44.7,48.4,71.7c11.8,27.5,17.6,56.9,17.6,87.4c0,30.2-5.9,59.7-17.6,87.5c-11.4,26.8-27.6,50.9-48.4,71.6 c-20.6,20.6-44.6,36.8-71.6,48.4C315.6,475.2,286.2,481,256,481s-59.7-5.9-87.5-17.6c-27-11.5-51-27.6-71.5-48.3l0,0l0,0 c-20.6-20.6-36.8-44.7-48.4-71.7C36.8,315.7,31,286.3,31,256s5.9-59.7,17.6-87.4c11.7-27.1,27.8-51.2,48.3-71.6l0,0l0,0 c20.6-20.6,44.7-36.8,71.7-48.4C196.3,36.7,225.7,30.8,256,30.8 M256-0.1c-34.5,0-68.1,6.8-99.6,20.1C125.9,33,98.5,51.4,75,74.9 c-23.6,23.5-41.9,50.9-54.9,81.4C6.8,187.8,0,221.4,0,255.9s6.8,68.1,20.1,99.6c13,30.5,31.4,57.9,54.9,81.4 c23.5,23.6,50.9,42,81.4,54.9c31.6,13.3,65.1,20.1,99.6,20.1s68-6.8,99.6-20.1c30.5-13,57.9-31.4,81.4-54.9s42-50.9,54.9-81.4 c13.3-31.6,20.1-65.1,20.1-99.6s-6.7-68.1-20.1-99.6c-13-30.5-31.4-57.9-54.9-81.4C413.4,51.3,386.1,33,355.6,20 C324,6.7,290.5-0.1,256-0.1L256-0.1z"/></g></switch></svg>